<?xml version="1.0" encoding="utf-8"?>
<!-- Generator: Adobe Illustrator 17.1.0, SVG Export Plug-In . SVG Version: 6.00 Build 0)  -->
<!DOCTYPE svg PUBLIC "-//W3C//DTD SVG 1.1//EN" "http://www.w3.org/Graphics/SVG/1.1/DTD/svg11.dtd" [
	<!ENTITY ns_extend "http://ns.adobe.com/Extensibility/1.0/">
	<!ENTITY ns_ai "http://ns.adobe.com/AdobeIllustrator/10.0/">
	<!ENTITY ns_graphs "http://ns.adobe.com/Graphs/1.0/">
	<!ENTITY ns_vars "http://ns.adobe.com/Variables/1.0/">
	<!ENTITY ns_imrep "http://ns.adobe.com/ImageReplacement/1.0/">
	<!ENTITY ns_sfw "http://ns.adobe.com/SaveForWeb/1.0/">
	<!ENTITY ns_custom "http://ns.adobe.com/GenericCustomNamespace/1.0/">
	<!ENTITY ns_adobe_xpath "http://ns.adobe.com/XPath/1.0/">
]>
<svg version="1.1" id="Layer_1" xmlns:x="&ns_extend;" xmlns:i="&ns_ai;" xmlns:graph="&ns_graphs;"
	 xmlns="http://www.w3.org/2000/svg" xmlns:xlink="http://www.w3.org/1999/xlink" x="0px" y="0px" viewBox="0 0 211.9 849.7"
	 enable-background="new 0 0 211.9 849.7" xml:space="preserve">
<metadata>
	<sfw  xmlns="&ns_sfw;">
		<slices></slices>
		<sliceSourceBounds  height="849.7" width="200.7" bottomLeftOrigin="true" y="-465" x="-54.7"></sliceSourceBounds>
	</sfw>
</metadata>
<path opacity="0.4" fill="none" stroke="#363B40" stroke-width="2" stroke-linecap="round" stroke-linejoin="round" d="M21.1,1.5
	l-2.4,55.9c0,0-1.6,29.5-1.6,29.5c0,0.9,54,42.9,54,42.9s2.9,52.9,2.8,60c0,2.5,10,33.3,10,33.3l13.4,56.7l28.7,85.3l84.9,81.1
	L45.6,742.7l13,41.8l38.5,58.6"/>
<path fill="none" stroke="#CE1E4D" stroke-width="3" stroke-linecap="round" stroke-linejoin="round" d="M62.3,849.7"/>
<path fill="none" stroke="#CE1E4D" stroke-width="3" stroke-linecap="round" stroke-linejoin="round" d="M62.3,849.3"/>
<circle fill="#D57257" cx="20.5" cy="6.8" r="6.8"/>
<circle fill="#D57257" cx="19.8" cy="25.1" r="6.8"/>
<circle fill="#D57257" cx="19.3" cy="41.2" r="6.8"/>
<circle fill="#D57257" cx="19.3" cy="56.2" r="6.8"/>
<circle fill="#D57257" cx="18" cy="71.6" r="6.8"/>
<circle fill="#D57257" cx="18" cy="86.9" r="6.8"/>
<circle fill="#D57257" cx="73.9" cy="189.8" r="6.8"/>
<circle fill="#D57257" cx="78.5" cy="208.4" r="6.8"/>
<circle fill="#D57257" cx="84" cy="225" r="6.8"/>
<circle fill="#D57257" cx="45.1" cy="741.9" r="6.8"/>
<circle fill="#D57257" cx="58.7" cy="784.4" r="6.8"/>
<circle fill="#D57257" cx="68.2" cy="799.7" r="6.8"/>
<circle fill="#D57257" cx="97.1" cy="841.9" r="6.8"/>
<circle fill="#D57257" cx="85.9" cy="828" r="6.8"/>
</svg>
